<svg width="800" height="800" xmlns="http://www.w3.org/2000/svg" xmlns:xlink="http://www.w3.org/1999/xlink" style="background-color: rgb(255, 255, 255);"><rect width="800" height="800" fill="#ffffff"></rect><g transform="translate(400, 400)"><g class="bereich"><path d="M0,-320A320,320,0,0,1,250.186,-199.517L225.167,-179.565A288,288,0,0,0,0,-288Z" fill="rgb(223, 159, 159)" stroke="#fff" stroke-width="2"></path><path id="textPath-bereich-0" d="
        M 27.250349906643798 
          -302.77618537455265
        A 304 304 0 0 1
          219.72963860352704
          -210.08304529200686
    " style="fill: none; stroke: none;"></path><text><textPath xlink:href="#textPath-bereich-0" startOffset="50%" text-anchor="middle" dominant-baseline="middle" transform="rotate(180)" style="font-size: 14px; font-family: Arial;">Zusammenarbeit</textPath></text></g><g class="bereich"><path d="M250.186,-199.517A320,320,0,0,1,277.128,160L249.415,144A288,288,0,0,0,225.167,-179.565Z" fill="rgb(223, 223, 159)" stroke="#fff" stroke-width="2"></path><path id="textPath-bereich-1" d="
        M 270.3728124530067 
          -138.9767688725395
        A 304 304 0 0 1
          288.066384105324
          97.12753650991014
    " style="fill: none; stroke: none;"></path><text><textPath xlink:href="#textPath-bereich-1" startOffset="50%" text-anchor="middle" dominant-baseline="middle" transform="rotate(180)" style="font-size: 14px; font-family: Arial;">Prozesse</textPath></text></g><g class="bereich"><path d="M277.128,160A320,320,0,0,1,-138.843,288.31L-124.959,259.479A288,288,0,0,0,249.415,144Z" fill="rgb(159, 223, 159)" stroke="#fff" stroke-width="2"></path><path id="textPath-bereich-2" d="
        M -30.59154555243552 
          302.456868562632
        A 304 304 0 0 0
          195.65594186211916
          232.66876114778933
    " style="fill: none; stroke: none;"></path><text><textPath xlink:href="#textPath-bereich-2" startOffset="50%" text-anchor="middle" dominant-baseline="middle" transform="" style="font-size: 14px; font-family: Arial;">Technische Praktiken</textPath></text></g><g class="bereich"><path d="M-138.843,288.31A320,320,0,0,1,-311.977,71.207L-280.779,64.086A288,288,0,0,0,-124.959,259.479Z" fill="rgb(159, 223, 223)" stroke="#fff" stroke-width="2"></path><path id="textPath-bereich-3" d="
        M -289.12118095372665 
          93.94116628998404
        A 304 304 0 0 0
          -155.92138033139543
          260.96843325496735
    " style="fill: none; stroke: none;"></path><text><textPath xlink:href="#textPath-bereich-3" startOffset="50%" text-anchor="middle" dominant-baseline="middle" transform="" style="font-size: 14px; font-family: Arial;">Kundenorientierung</textPath></text></g><g class="bereich"><path d="M-311.977,71.207A320,320,0,0,1,-250.186,-199.517L-225.167,-179.565A288,288,0,0,0,-280.779,64.086Z" fill="rgb(159, 159, 223)" stroke="#fff" stroke-width="2"></path><path id="textPath-bereich-4" d="
        M -301.24872757745214 
          40.806912808567304
        A 304 304 0 0 1
          -253.71026913127605
          -167.47268236143913
    " style="fill: none; stroke: none;"></path><text><textPath xlink:href="#textPath-bereich-4" startOffset="50%" text-anchor="middle" dominant-baseline="middle" transform="rotate(180)" style="font-size: 14px; font-family: Arial;">Führung</textPath></text></g><g class="bereich"><path d="M-250.186,-199.517A320,320,0,0,1,0,-320L0,-288A288,288,0,0,0,-225.167,-179.565Z" fill="rgb(223, 159, 223)" stroke="#fff" stroke-width="2"></path><path id="textPath-bereich-5" d="
        M -219.72963860352706 
          -210.08304529200683
        A 304 304 0 0 1
          -27.250349906643837
          -302.77618537455265
    " style="fill: none; stroke: none;"></path><text><textPath xlink:href="#textPath-bereich-5" startOffset="50%" text-anchor="middle" dominant-baseline="middle" transform="rotate(180)" style="font-size: 14px; font-family: Arial;">Innovation</textPath></text></g><g class="aspekt"><path d="M0,-288A288,288,0,0,1,162.236,-237.957L146.463,-214.822A260,260,0,0,0,0,-260Z" fill="#f0f0f0" stroke="#fff" stroke-width="2"></path><path id="textPath-aspekt-0" d="
        M 16.386338180939358 
          -273.50957555635944
        A 274 274 0 0 1
          140.53440200921824
          -235.21496944691134
    " style="fill: none; stroke: none;"></path><text><textPath xlink:href="#textPath-aspekt-0" startOffset="50%" text-anchor="middle" dominant-baseline="middle" transform="rotate(180)" style="font-size: 9px; font-family: Arial;">Kommunikation</textPath></text></g><g class="aspekt"><path d="M162.236,-237.957A288,288,0,0,1,225.167,-179.565L203.276,-162.107A260,260,0,0,0,146.463,-214.822Z" fill="#f0f0f0" stroke="#fff" stroke-width="2"></path><path id="textPath-aspekt-1" d="
        M 161.05315912813762 
          -221.6706564587356
        A 274 274 0 0 1
          209.015302690261
          -177.16829073312914
    " style="fill: none; stroke: none;"></path><text><textPath xlink:href="#textPath-aspekt-1" startOffset="50%" text-anchor="middle" dominant-baseline="middle" transform="rotate(180)" style="font-size: 9px; font-family: Arial;">Teamdynamik</textPath></text></g><g class="aspekt"><path d="M225.167,-179.565A288,288,0,0,1,287.195,-21.522L259.273,-19.43A260,260,0,0,0,203.276,-162.107Z" fill="#f0f0f0" stroke="#fff" stroke-width="2"></path><path id="textPath-aspekt-2" d="
        M 224.05511167205418 
          -157.71907599787457
        A 274 274 0 0 1
          271.5202347244141
          -36.779914834037655
    " style="fill: none; stroke: none;"></path><text><textPath xlink:href="#textPath-aspekt-2" startOffset="50%" text-anchor="middle" dominant-baseline="middle" transform="rotate(180)" style="font-size: 9px; font-family: Arial;">Sprint Planning</textPath></text></g><g class="aspekt"><path d="M287.195,-21.522A288,288,0,0,1,280.779,64.086L253.481,57.855A260,260,0,0,0,259.273,-19.43Z" fill="#f0f0f0" stroke="#fff" stroke-width="2"></path><path id="textPath-aspekt-3" d="
        M 268.83465705000333 
          52.952121475981485
        A 274 274 0 0 0
          273.7241002323202
          -12.292963516041176
    " style="fill: none; stroke: none;"></path><text><textPath xlink:href="#textPath-aspekt-3" startOffset="50%" text-anchor="middle" dominant-baseline="middle" transform="" style="font-size: 9px; font-family: Arial;">Retrospektiven</textPath></text></g><g class="aspekt"><path d="M280.779,64.086A288,288,0,0,1,249.415,144L225.167,130A260,260,0,0,0,253.481,57.855Z" fill="#f0f0f0" stroke="#fff" stroke-width="2"></path><path id="textPath-aspekt-4" d="
        M 241.28317572874627 
          129.8400135176015
        A 274 274 0 0 0
          265.18672107548264
          68.93477326599519
    " style="fill: none; stroke: none;"></path><text><textPath xlink:href="#textPath-aspekt-4" startOffset="50%" text-anchor="middle" dominant-baseline="middle" transform="" style="font-size: 9px; font-family: Arial;">Daily Scrum</textPath></text></g><g class="aspekt"><path d="M249.415,144A288,288,0,0,1,124.959,259.479L112.81,234.252A260,260,0,0,0,225.167,130Z" fill="#f0f0f0" stroke="#fff" stroke-width="2"></path><path id="textPath-aspekt-5" d="
        M 133.43493788679683 
          239.31384696909342
        A 274 274 0 0 0
          228.673071519637
          150.94577291787593
    " style="fill: none; stroke: none;"></path><text><textPath xlink:href="#textPath-aspekt-5" startOffset="50%" text-anchor="middle" dominant-baseline="middle" transform="" style="font-size: 9px; font-family: Arial;">Code Reviews</textPath></text></g><g class="aspekt"><path d="M124.959,259.479A288,288,0,0,1,-42.924,284.783L-38.751,257.096A260,260,0,0,0,112.81,234.252Z" fill="#f0f0f0" stroke="#fff" stroke-width="2"></path><path id="textPath-aspekt-6" d="
        M -24.561170639540457 
          272.8969565546955
        A 274 274 0 0 0
          103.90777676690264
          253.533378329875
    " style="fill: none; stroke: none;"></path><text><textPath xlink:href="#textPath-aspekt-6" startOffset="50%" text-anchor="middle" dominant-baseline="middle" transform="" style="font-size: 9px; font-family: Arial;">Automatisierung</textPath></text></g><g class="aspekt"><path d="M-42.924,284.783A288,288,0,0,1,-124.959,259.479L-112.81,234.252A260,260,0,0,0,-38.751,257.096Z" fill="#f0f0f0" stroke="#fff" stroke-width="2"></path><path id="textPath-aspekt-7" d="
        M -111.44584020276884 
          250.31145539407285
        A 274 274 0 0 0
          -48.92458917482606
          269.5967072760246
    " style="fill: none; stroke: none;"></path><text><textPath xlink:href="#textPath-aspekt-7" startOffset="50%" text-anchor="middle" dominant-baseline="middle" transform="" style="font-size: 9px; font-family: Arial;">Dokumentation</textPath></text></g><g class="aspekt"><path d="M-124.959,259.479A288,288,0,0,1,-249.415,144L-225.167,130A260,260,0,0,0,-112.81,234.252Z" fill="#f0f0f0" stroke="#fff" stroke-width="2"></path><path id="textPath-aspekt-8" d="
        M -228.67307151963672 
          150.94577291787644
        A 274 274 0 0 0
          -133.4349378867962
          239.31384696909376
    " style="fill: none; stroke: none;"></path><text><textPath xlink:href="#textPath-aspekt-8" startOffset="50%" text-anchor="middle" dominant-baseline="middle" transform="" style="font-size: 9px; font-family: Arial;">Feedback</textPath></text></g><g class="aspekt"><path d="M-249.415,144A288,288,0,0,1,-280.779,64.086L-253.481,57.855A260,260,0,0,0,-225.167,130Z" fill="#f0f0f0" stroke="#fff" stroke-width="2"></path><path id="textPath-aspekt-9" d="
        M -265.1867210754826 
          68.93477326599543
        A 274 274 0 0 0
          -241.2831757287461
          129.84001351760188
    " style="fill: none; stroke: none;"></path><text><textPath xlink:href="#textPath-aspekt-9" startOffset="50%" text-anchor="middle" dominant-baseline="middle" transform="" style="font-size: 9px; font-family: Arial;">Requirements</textPath></text></g><g class="aspekt"><path d="M-280.779,64.086A288,288,0,0,1,-268.092,-105.218L-242.027,-94.989A260,260,0,0,0,-253.481,57.855Z" fill="#f0f0f0" stroke="#fff" stroke-width="2"></path><path id="textPath-aspekt-10" d="
        M -270.2984227350448 
          44.88610772774784
        A 274 274 0 0 1
          -260.58948546487215
          -84.67065645873532
    " style="fill: none; stroke: none;"></path><text><textPath xlink:href="#textPath-aspekt-10" startOffset="50%" text-anchor="middle" dominant-baseline="middle" transform="rotate(180)" style="font-size: 9px; font-family: Arial;">Selbstorganisation</textPath></text></g><g class="aspekt"><path d="M-268.092,-105.218A288,288,0,0,1,-225.167,-179.565L-203.276,-162.107A260,260,0,0,0,-242.027,-94.989Z" fill="#f0f0f0" stroke="#fff" stroke-width="2"></path><path id="textPath-aspekt-11" d="
        M -251.95060967909757 
          -107.6888586731748
        A 274 274 0 0 1
          -219.2365921550706
          -164.35119914448825
    " style="fill: none; stroke: none;"></path><text><textPath xlink:href="#textPath-aspekt-11" startOffset="50%" text-anchor="middle" dominant-baseline="middle" transform="rotate(180)" style="font-size: 9px; font-family: Arial;">Ressourcen</textPath></text></g><g class="aspekt"><path d="M-225.167,-179.565A288,288,0,0,1,-162.236,-237.957L-146.463,-214.822A260,260,0,0,0,-203.276,-162.107Z" fill="#f0f0f0" stroke="#fff" stroke-width="2"></path><path id="textPath-aspekt-12" d="
        M -209.01530269026134 
          -177.16829073312877
        A 274 274 0 0 1
          -161.05315912813788
          -221.6706564587354
    " style="fill: none; stroke: none;"></path><text><textPath xlink:href="#textPath-aspekt-12" startOffset="50%" text-anchor="middle" dominant-baseline="middle" transform="rotate(180)" style="font-size: 9px; font-family: Arial;">Experimente</textPath></text></g><g class="aspekt"><path d="M-162.236,-237.957A288,288,0,0,1,-84.889,-275.205L-76.636,-248.449A260,260,0,0,0,-146.463,-214.822Z" fill="#f0f0f0" stroke="#fff" stroke-width="2"></path><path id="textPath-aspekt-13" d="
        M -147.50806880884704 
          -230.90554267120663
        A 274 274 0 0 1
          -88.559446142522
          -259.293703160971
    " style="fill: none; stroke: none;"></path><text><textPath xlink:href="#textPath-aspekt-13" startOffset="50%" text-anchor="middle" dominant-baseline="middle" transform="rotate(180)" style="font-size: 9px; font-family: Arial;">Lernen</textPath></text></g><g class="aspekt"><path d="M-84.889,-275.205A288,288,0,0,1,0,-288L0,-260A260,260,0,0,0,-76.636,-248.449Z" fill="#f0f0f0" stroke="#fff" stroke-width="2"></path><path id="textPath-aspekt-14" d="
        M -72.89409568526925 
          -264.1258238306637
        A 274 274 0 0 1
          -8.196837730415307
          -273.8773664456799
    " style="fill: none; stroke: none;"></path><text><textPath xlink:href="#textPath-aspekt-14" startOffset="50%" text-anchor="middle" dominant-baseline="middle" transform="rotate(180)" style="font-size: 9px; font-family: Arial;">Technologie</textPath></text></g><g class="frage"><path d="M0,-260A260,260,0,0,1,76.636,-248.449L69.562,-225.515A236,236,0,0,0,0,-236Z" fill="#f0f0f0" stroke="#fff" stroke-width="2"></path><path id="textPath-frage-0" d="
        M 7.419035610010796 
          -247.88900320630881
        A 248 248 0 0 1
          65.97713770053544
          -239.0627894525716
    " style="fill: none; stroke: none;"></path><text><textPath xlink:href="#textPath-frage-0" startOffset="50%" text-anchor="middle" dominant-baseline="middle" transform="rotate(180)" style="font-size: 7px; font-family: Arial;">Problemoffenheit</textPath></text></g><g class="frage"><path d="M76.636,-248.449A260,260,0,0,1,146.463,-214.822L132.944,-194.992A236,236,0,0,0,69.562,-225.515Z" fill="#f0f0f0" stroke="#fff" stroke-width="2"></path><path id="textPath-frage-1" d="
        M 80.15599504870609 
          -234.68919118219273
        A 248 248 0 0 1
          133.51095279048926
          -208.9947977462017
    " style="fill: none; stroke: none;"></path><text><textPath xlink:href="#textPath-frage-1" startOffset="50%" text-anchor="middle" dominant-baseline="middle" transform="rotate(180)" style="font-size: 7px; font-family: Arial;">Meetingkultur</textPath></text></g><g class="frage"><path d="M146.463,-214.822A260,260,0,0,1,203.276,-162.107L184.512,-147.144A236,236,0,0,0,132.944,-194.992Z" fill="#f0f0f0" stroke="#fff" stroke-width="2"></path><path id="textPath-frage-2" d="
        M 145.7707425685333 
          -200.63621460498698
        A 248 248 0 0 1
          189.18173382184207
          -160.35670110151833
    " style="fill: none; stroke: none;"></path><text><textPath xlink:href="#textPath-frage-2" startOffset="50%" text-anchor="middle" dominant-baseline="middle" transform="rotate(180)" style="font-size: 7px; font-family: Arial;">Hilfsbereitschaft</textPath></text></g><g class="frage"><path d="M203.276,-162.107A260,260,0,0,1,242.027,-94.989L219.686,-86.22A236,236,0,0,0,184.512,-147.144Z" fill="#f0f0f0" stroke="#fff" stroke-width="2"></path><path id="textPath-frage-3" d="
        M 198.43311990677915 
          -148.7558298826026
        A 248 248 0 0 1
          228.04288759275974
          -97.47020785017308
    " style="fill: none; stroke: none;"></path><text><textPath xlink:href="#textPath-frage-3" startOffset="50%" text-anchor="middle" dominant-baseline="middle" transform="rotate(180)" style="font-size: 7px; font-family: Arial;">Planungsqualität</textPath></text></g><g class="frage"><path d="M242.027,-94.989A260,260,0,0,1,259.273,-19.43L235.34,-17.636A236,236,0,0,0,219.686,-86.22Z" fill="#f0f0f0" stroke="#fff" stroke-width="2"></path><path id="textPath-frage-4" d="
        M 233.46384373190398 
          -83.65783687094188
        A 248 248 0 0 1
          246.64143005133178
          -25.923058890378126
    " style="fill: none; stroke: none;"></path><text><textPath xlink:href="#textPath-frage-4" startOffset="50%" text-anchor="middle" dominant-baseline="middle" transform="rotate(180)" style="font-size: 7px; font-family: Arial;">Schätzgenauigkeit</textPath></text></g><g class="frage"><path d="M259.273,-19.43A260,260,0,0,1,253.481,57.855L230.083,52.515A236,236,0,0,0,235.34,-17.636Z" fill="#f0f0f0" stroke="#fff" stroke-width="2"></path><path id="textPath-frage-5" d="
        M 243.3247990817548 
          47.92746761329711
        A 248 248 0 0 0
          247.75028050224603
          -11.12647792692778
    " style="fill: none; stroke: none;"></path><text><textPath xlink:href="#textPath-frage-5" startOffset="50%" text-anchor="middle" dominant-baseline="middle" transform="" style="font-size: 7px; font-family: Arial;">Verbesserungen</textPath></text></g><g class="frage"><path d="M253.481,57.855A260,260,0,0,1,225.167,130L204.382,118A236,236,0,0,0,230.083,52.515Z" fill="#f0f0f0" stroke="#fff" stroke-width="2"></path><path id="textPath-frage-6" d="
        M 218.38769190047108 
          117.51942829330355
        A 248 248 0 0 0
          240.02301761576533
          62.39351740863798
    " style="fill: none; stroke: none;"></path><text><textPath xlink:href="#textPath-frage-6" startOffset="50%" text-anchor="middle" dominant-baseline="middle" transform="" style="font-size: 7px; font-family: Arial;">Effektivität</textPath></text></g><g class="frage"><path d="M225.167,130A260,260,0,0,1,176.845,190.593L160.521,173A236,236,0,0,0,204.382,118Z" fill="#f0f0f0" stroke="#fff" stroke-width="2"></path><path id="textPath-frage-7" d="
        M 174.04587991523002 
          176.66927204393335
        A 248 248 0 0 0
          210.96865629046033
          130.36957491300498
    " style="fill: none; stroke: none;"></path><text><textPath xlink:href="#textPath-frage-7" startOffset="50%" text-anchor="middle" dominant-baseline="middle" transform="" style="font-size: 7px; font-family: Arial;">Häufigkeit</textPath></text></g><g class="frage"><path d="M176.845,190.593A260,260,0,0,1,112.81,234.252L102.397,212.629A236,236,0,0,0,160.521,173Z" fill="#f0f0f0" stroke="#fff" stroke-width="2"></path><path id="textPath-frage-8" d="
        M 114.23932771175699 
          220.12127567312933
        A 248 248 0 0 0
          163.16880403304884
          186.7617235688954
    " style="fill: none; stroke: none;"></path><text><textPath xlink:href="#textPath-frage-8" startOffset="50%" text-anchor="middle" dominant-baseline="middle" transform="" style="font-size: 7px; font-family: Arial;">Qualität</textPath></text></g><g class="frage"><path d="M112.81,234.252A260,260,0,0,1,38.751,257.096L35.174,233.364A236,236,0,0,0,102.397,212.629Z" fill="#f0f0f0" stroke="#fff" stroke-width="2"></path><path id="textPath-frage-9" d="
        M 44.282109910062225 
          244.0145379724601
        A 248 248 0 0 0
          100.8706874827987
          226.5592734953649
    " style="fill: none; stroke: none;"></path><text><textPath xlink:href="#textPath-frage-9" startOffset="50%" text-anchor="middle" dominant-baseline="middle" transform="" style="font-size: 7px; font-family: Arial;">Testabdeckung</textPath></text></g><g class="frage"><path d="M38.751,257.096A260,260,0,0,1,-38.751,257.096L-35.174,233.364A236,236,0,0,0,35.174,233.364Z" fill="#f0f0f0" stroke="#fff" stroke-width="2"></path><path id="textPath-frage-10" d="
        M -29.609767685980326 
          246.2260377327757
        A 248 248 0 0 0
          29.609767685980792
          246.22603773277564
    " style="fill: none; stroke: none;"></path><text><textPath xlink:href="#textPath-frage-10" startOffset="50%" text-anchor="middle" dominant-baseline="middle" transform="" style="font-size: 7px; font-family: Arial;">CI/CD</textPath></text></g><g class="frage"><path d="M-38.751,257.096A260,260,0,0,1,-112.81,234.252L-102.397,212.629A236,236,0,0,0,-35.174,233.364Z" fill="#f0f0f0" stroke="#fff" stroke-width="2"></path><path id="textPath-frage-11" d="
        M -100.87068748279806 
          226.5592734953652
        A 248 248 0 0 0
          -44.28210991006154
          244.0145379724602
    " style="fill: none; stroke: none;"></path><text><textPath xlink:href="#textPath-frage-11" startOffset="50%" text-anchor="middle" dominant-baseline="middle" transform="" style="font-size: 7px; font-family: Arial;">Aktualität</textPath></text></g><g class="frage"><path d="M-112.81,234.252A260,260,0,0,1,-176.845,190.593L-160.521,173A236,236,0,0,0,-102.397,212.629Z" fill="#f0f0f0" stroke="#fff" stroke-width="2"></path><path id="textPath-frage-12" d="
        M -163.16880403304847 
          186.76172356889575
        A 248 248 0 0 0
          -114.23932771175656
          220.12127567312953
    " style="fill: none; stroke: none;"></path><text><textPath xlink:href="#textPath-frage-12" startOffset="50%" text-anchor="middle" dominant-baseline="middle" transform="" style="font-size: 7px; font-family: Arial;">Geschwindigkeit</textPath></text></g><g class="frage"><path d="M-176.845,190.593A260,260,0,0,1,-225.167,130L-204.382,118A236,236,0,0,0,-160.521,173Z" fill="#f0f0f0" stroke="#fff" stroke-width="2"></path><path id="textPath-frage-13" d="
        M -210.96865629046 
          130.3695749130055
        A 248 248 0 0 0
          -174.04587991522948
          176.6692720439339
    " style="fill: none; stroke: none;"></path><text><textPath xlink:href="#textPath-frage-13" startOffset="50%" text-anchor="middle" dominant-baseline="middle" transform="" style="font-size: 7px; font-family: Arial;">Integration</textPath></text></g><g class="frage"><path d="M-225.167,130A260,260,0,0,1,-253.481,57.855L-230.083,52.515A236,236,0,0,0,-204.382,118Z" fill="#f0f0f0" stroke="#fff" stroke-width="2"></path><path id="textPath-frage-14" d="
        M -240.02301761576527 
          62.3935174086382
        A 248 248 0 0 0
          -218.3876919004709
          117.51942829330389
    " style="fill: none; stroke: none;"></path><text><textPath xlink:href="#textPath-frage-14" startOffset="50%" text-anchor="middle" dominant-baseline="middle" transform="" style="font-size: 7px; font-family: Arial;">Klarheit</textPath></text></g><g class="frage"><path d="M-253.481,57.855A260,260,0,0,1,-259.273,-19.43L-235.34,-17.636A236,236,0,0,0,-230.083,52.515Z" fill="#f0f0f0" stroke="#fff" stroke-width="2"></path><path id="textPath-frage-15" d="
        M -247.75028050224606 
          -11.12647792692745
        A 248 248 0 0 0
          -243.32479908175475
          47.9274676132976
    " style="fill: none; stroke: none;"></path><text><textPath xlink:href="#textPath-frage-15" startOffset="50%" text-anchor="middle" dominant-baseline="middle" transform="" style="font-size: 7px; font-family: Arial;">Entscheidungen</textPath></text></g><g class="frage"><path d="M-259.273,-19.43A260,260,0,0,1,-242.027,-94.989L-219.686,-86.22A236,236,0,0,0,-235.34,-17.636Z" fill="#f0f0f0" stroke="#fff" stroke-width="2"></path><path id="textPath-frage-16" d="
        M -246.6414300513318 
          -25.92305889037796
        A 248 248 0 0 1
          -233.46384373190398
          -83.65783687094188
    " style="fill: none; stroke: none;"></path><text><textPath xlink:href="#textPath-frage-16" startOffset="50%" text-anchor="middle" dominant-baseline="middle" transform="rotate(180)" style="font-size: 7px; font-family: Arial;">Eigeninitiative</textPath></text></g><g class="frage"><path d="M-242.027,-94.989A260,260,0,0,1,-203.276,-162.107L-184.512,-147.144A236,236,0,0,0,-219.686,-86.22Z" fill="#f0f0f0" stroke="#fff" stroke-width="2"></path><path id="textPath-frage-17" d="
        M -228.04288759275985 
          -97.47020785017283
        A 248 248 0 0 1
          -198.43311990677924
          -148.7558298826025
    " style="fill: none; stroke: none;"></path><text><textPath xlink:href="#textPath-frage-17" startOffset="50%" text-anchor="middle" dominant-baseline="middle" transform="rotate(180)" style="font-size: 7px; font-family: Arial;">Verfügbarkeit</textPath></text></g><g class="frage"><path d="M-203.276,-162.107A260,260,0,0,1,-146.463,-214.822L-132.944,-194.992A236,236,0,0,0,-184.512,-147.144Z" fill="#f0f0f0" stroke="#fff" stroke-width="2"></path><path id="textPath-frage-18" d="
        M -189.18173382184207 
          -160.35670110151833
        A 248 248 0 0 1
          -145.7707425685332
          -200.6362146049871
    " style="fill: none; stroke: none;"></path><text><textPath xlink:href="#textPath-frage-18" startOffset="50%" text-anchor="middle" dominant-baseline="middle" transform="rotate(180)" style="font-size: 7px; font-family: Arial;">Häufigkeit</textPath></text></g><g class="frage"><path d="M-146.463,-214.822A260,260,0,0,1,-76.636,-248.449L-69.562,-225.515A236,236,0,0,0,-132.944,-194.992Z" fill="#f0f0f0" stroke="#fff" stroke-width="2"></path><path id="textPath-frage-19" d="
        M -133.5109527904893 
          -208.99479774620164
        A 248 248 0 0 1
          -80.15599504870606
          -234.68919118219273
    " style="fill: none; stroke: none;"></path><text><textPath xlink:href="#textPath-frage-19" startOffset="50%" text-anchor="middle" dominant-baseline="middle" transform="rotate(180)" style="font-size: 7px; font-family: Arial;">Weiterbildung</textPath></text></g><g class="frage"><path d="M-76.636,-248.449A260,260,0,0,1,0,-260L0,-236A236,236,0,0,0,-69.562,-225.515Z" fill="#f0f0f0" stroke="#fff" stroke-width="2"></path><path id="textPath-frage-20" d="
        M -65.97713770053525 
          -239.06278945257165
        A 248 248 0 0 1
          -7.4190356100104955
          -247.88900320630884
    " style="fill: none; stroke: none;"></path><text><textPath xlink:href="#textPath-frage-20" startOffset="50%" text-anchor="middle" dominant-baseline="middle" transform="rotate(180)" style="font-size: 7px; font-family: Arial;">Modernität</textPath></text></g><path d="M4.188292053083947e-15,-68.39999999999999L1.2564876159251843e-14,-205.2A205.2,205.2,0,0,1,60.483761789117516,-196.08353974731608L20.161253929705836,-65.36117991577203A68.39999999999999,68.39999999999999,0,0,0,4.188292053083947e-15,-68.39999999999999" fill="rgb(223, 159, 159)" opacity="0.5" stroke="none"></path><path d="M20.161253929705836,-65.36117991577203L60.483761789117516,-196.08353974731608A205.2,205.2,0,0,1,115.59327591465522,-169.54419648964213L38.53109197155174,-56.51473216321404A68.39999999999999,68.39999999999999,0,0,0,20.161253929705836,-65.36117991577203" fill="rgb(223, 159, 159)" opacity="0.5" stroke="none"></path><path d="M51.374789295402316,-75.35297621761873L115.59327591465522,-169.54419648964213A205.2,205.2,0,0,1,160.4318202024397,-127.9401073414121L71.30303120108431,-56.862269929516486A91.19999999999999,91.19999999999999,0,0,0,51.374789295402316,-75.35297621761873" fill="rgb(223, 159, 159)" opacity="0.5" stroke="none"></path><path d="M71.30303120108431,-56.862269929516486L160.4318202024397,-127.9401073414121A205.2,205.2,0,0,1,191.0152932217907,-74.96797819998429L84.89568587635142,-33.31910142221523A91.19999999999999,91.19999999999999,0,0,0,71.30303120108431,-56.862269929516486" fill="rgb(223, 223, 159)" opacity="0.5" stroke="none"></path><path d="M63.67176440726356,-24.989326066661427L148.56745028361496,-58.30842748887665A159.59999999999997,159.59999999999997,0,0,1,159.1537260301163,-11.92692293639332L68.20873972719271,-5.111538401311423A68.39999999999999,68.39999999999999,0,0,0,63.67176440726356,-24.989326066661427" fill="rgb(223, 223, 159)" opacity="0.5" stroke="none"></path><path d="M68.20873972719271,-5.111538401311423L181.88997260584722,-13.630769070163796A182.39999999999998,182.39999999999998,0,0,1,177.8268511819646,40.58781835363174L66.68506919323673,15.220431882611903A68.39999999999999,68.39999999999999,0,0,0,68.20873972719271,-5.111538401311423" fill="rgb(223, 223, 159)" opacity="0.5" stroke="none"></path><path d="M88.9134255909823,20.29390917681587L200.05520757971018,45.66129564783571A205.2,205.2,0,0,1,177.7084128565668,102.59999999999997L78.9815168251408,45.59999999999998A91.19999999999999,91.19999999999999,0,0,0,88.9134255909823,20.29390917681587" fill="rgb(223, 223, 159)" opacity="0.5" stroke="none"></path><path d="M98.726896031426,56.99999999999997L177.7084128565668,102.59999999999997A205.2,205.2,0,0,1,139.5714457905927,150.4222440994803L77.53969210588482,83.56791338860016A113.99999999999999,113.99999999999999,0,0,0,98.726896031426,56.99999999999997" fill="rgb(159, 223, 159)" opacity="0.5" stroke="none"></path><path d="M62.03175368470786,66.85433071088013L139.5714457905927,150.4222440994803A205.2,205.2,0,0,1,89.03294326692293,184.8788116935764L39.5701970075213,82.16836075270062A91.19999999999999,91.19999999999999,0,0,0,62.03175368470786,66.85433071088013" fill="rgb(159, 223, 159)" opacity="0.5" stroke="none"></path><path d="M29.677647755640976,61.62627056452546L79.1403940150426,164.33672150540124A182.39999999999998,182.39999999999998,0,0,1,27.18530935053425,180.36274270346343L10.194491006450344,67.63602851379878A68.39999999999999,68.39999999999999,0,0,0,29.677647755640976,61.62627056452546" fill="rgb(159, 223, 159)" opacity="0.5" stroke="none"></path><path d="M13.592654675267125,90.18137135173171L30.583473019351032,202.90808554139636A205.2,205.2,0,0,1,-30.58347301935101,202.90808554139636L-13.592654675267115,90.18137135173171A91.19999999999999,91.19999999999999,0,0,0,13.592654675267125,90.18137135173171" fill="rgb(159, 223, 159)" opacity="0.5" stroke="none"></path><path d="M-6.796327337633557,45.090685675865856L-23.787145681717448,157.8173998655305A159.59999999999997,159.59999999999997,0,0,1,-69.24784476316225,143.79463131722608L-19.785098503760647,41.08418037635031A45.599999999999994,45.599999999999994,0,0,0,-6.796327337633557,45.090685675865856" fill="rgb(159, 223, 159)" opacity="0.5" stroke="none"></path><path d="M-29.67764775564097,61.62627056452546L-79.14039401504259,164.33672150540124A182.39999999999998,182.39999999999998,0,0,1,-124.06350736941572,133.7086614217603L-46.52381526353089,50.14074803316011A68.39999999999999,68.39999999999999,0,0,0,-29.67764775564097,61.62627056452546" fill="rgb(159, 223, 223)" opacity="0.5" stroke="none"></path><path d="M-62.03175368470786,66.85433071088015L-139.5714457905927,150.42224409948034A205.2,205.2,0,0,1,-177.70841285656678,102.60000000000007L-78.98151682514079,45.60000000000002A91.19999999999999,91.19999999999999,0,0,0,-62.03175368470786,66.85433071088015" fill="rgb(159, 223, 223)" opacity="0.5" stroke="none"></path><path d="M-59.23613761885559,34.20000000000002L-157.96303365028157,91.20000000000005A182.39999999999998,182.39999999999998,0,0,1,-177.8268511819646,40.58781835363176L-66.68506919323673,15.22043188261191A68.39999999999999,68.39999999999999,0,0,0,-59.23613761885559,34.20000000000002" fill="rgb(159, 223, 223)" opacity="0.5" stroke="none"></path><path d="M-88.9134255909823,20.29390917681588L-200.05520757971018,45.661295647835736A205.2,205.2,0,0,1,-204.62621918157816,-15.334615203934108L-90.94498630292362,-6.815384535081825A91.19999999999999,91.19999999999999,0,0,0,-88.9134255909823,20.29390917681588" fill="rgb(159, 159, 223)" opacity="0.5" stroke="none"></path><path d="M-90.94498630292362,-6.815384535081825L-204.62621918157816,-15.334615203934108A205.2,205.2,0,0,1,-191.01529322179076,-74.96797819998417L-84.89568587635144,-33.319101422215184A91.19999999999999,91.19999999999999,0,0,0,-90.94498630292362,-6.815384535081825" fill="rgb(159, 159, 223)" opacity="0.5" stroke="none"></path><path d="M-63.67176440726358,-24.989326066661388L-169.79137175270287,-66.63820284443037A182.39999999999998,182.39999999999998,0,0,1,-142.60606240216865,-113.72453985903296L-53.47727340081324,-42.64670244713736A68.39999999999999,68.39999999999999,0,0,0,-63.67176440726358,-24.989326066661388" fill="rgb(159, 159, 223)" opacity="0.5" stroke="none"></path><path d="M-35.65151560054216,-28.43113496475824L-124.78030460189754,-99.50897237665383A159.59999999999997,159.59999999999997,0,0,1,-89.90588126695404,-131.86770838083277L-25.687394647701158,-37.676488108809366A45.599999999999994,45.599999999999994,0,0,0,-35.65151560054216,-28.43113496475824" fill="rgb(223, 159, 223)" opacity="0.5" stroke="none"></path><path d="M-51.374789295402316,-75.35297621761873L-115.59327591465522,-169.54419648964213A205.2,205.2,0,0,1,-60.48376178911763,-196.08353974731602L-26.8816719062745,-87.14823988769601A91.19999999999999,91.19999999999999,0,0,0,-51.374789295402316,-75.35297621761873" fill="rgb(223, 159, 223)" opacity="0.5" stroke="none"></path><path d="M-33.602089882843124,-108.93529985962002L-60.48376178911763,-196.08353974731602A205.2,205.2,0,0,1,-3.769462847775553e-14,-205.2L-2.0941460265419736e-14,-113.99999999999999A113.99999999999999,113.99999999999999,0,0,0,-33.602089882843124,-108.93529985962002" fill="rgb(223, 159, 223)" opacity="0.5" stroke="none"></path><line x1="0" y1="0" x2="1.3960973510279824e-14" y2="-227.99999999999997" stroke="#ddd" stroke-width="1"></line><line x1="0" y1="0" x2="67.20417976568612" y2="-217.87059971924006" stroke="#ddd" stroke-width="1"></line><line x1="0" y1="0" x2="128.4369732385058" y2="-188.3824405440468" stroke="#ddd" stroke-width="1"></line><line x1="0" y1="0" x2="178.25757800271077" y2="-142.15567482379123" stroke="#ddd" stroke-width="1"></line><line x1="0" y1="0" x2="212.23921469087855" y2="-83.29775355553808" stroke="#ddd" stroke-width="1"></line><line x1="0" y1="0" x2="227.36246575730905" y2="-17.038461337704742" stroke="#ddd" stroke-width="1"></line><line x1="0" y1="0" x2="222.28356397745577" y2="50.734772942039676" stroke="#ddd" stroke-width="1"></line><line x1="0" y1="0" x2="197.453792062852" y2="113.99999999999994" stroke="#ddd" stroke-width="1"></line><line x1="0" y1="0" x2="155.07938421176965" y2="167.13582677720032" stroke="#ddd" stroke-width="1"></line><line x1="0" y1="0" x2="98.92549251880325" y2="205.42090188175155" stroke="#ddd" stroke-width="1"></line><line x1="0" y1="0" x2="33.98163668816781" y2="225.45342837932927" stroke="#ddd" stroke-width="1"></line><line x1="0" y1="0" x2="-33.98163668816779" y2="225.45342837932927" stroke="#ddd" stroke-width="1"></line><line x1="0" y1="0" x2="-98.92549251880322" y2="205.42090188175155" stroke="#ddd" stroke-width="1"></line><line x1="0" y1="0" x2="-155.07938421176965" y2="167.13582677720035" stroke="#ddd" stroke-width="1"></line><line x1="0" y1="0" x2="-197.45379206285196" y2="114.00000000000006" stroke="#ddd" stroke-width="1"></line><line x1="0" y1="0" x2="-222.28356397745577" y2="50.7347729420397" stroke="#ddd" stroke-width="1"></line><line x1="0" y1="0" x2="-227.36246575730905" y2="-17.038461337704565" stroke="#ddd" stroke-width="1"></line><line x1="0" y1="0" x2="-212.23921469087858" y2="-83.29775355553795" stroke="#ddd" stroke-width="1"></line><line x1="0" y1="0" x2="-178.2575780027108" y2="-142.1556748237912" stroke="#ddd" stroke-width="1"></line><line x1="0" y1="0" x2="-128.4369732385058" y2="-188.3824405440468" stroke="#ddd" stroke-width="1"></line><line x1="0" y1="0" x2="-67.20417976568625" y2="-217.87059971924003" stroke="#ddd" stroke-width="1"></line><circle cx="0" cy="0" r="22.799999999999997" fill="none" stroke="#ddd" stroke-width="1" stroke-dasharray="3,3"></circle><circle cx="0" cy="0" r="45.599999999999994" fill="none" stroke="#ddd" stroke-width="1" stroke-dasharray="3,3"></circle><circle cx="0" cy="0" r="68.39999999999999" fill="none" stroke="#ddd" stroke-width="1" stroke-dasharray="3,3"></circle><circle cx="0" cy="0" r="91.19999999999999" fill="none" stroke="#ddd" stroke-width="1" stroke-dasharray="3,3"></circle><circle cx="0" cy="0" r="113.99999999999999" fill="none" stroke="#ddd" stroke-width="1" stroke-dasharray="3,3"></circle><circle cx="0" cy="0" r="136.79999999999998" fill="none" stroke="#ddd" stroke-width="1" stroke-dasharray="3,3"></circle><circle cx="0" cy="0" r="159.59999999999997" fill="none" stroke="#ddd" stroke-width="1" stroke-dasharray="3,3"></circle><circle cx="0" cy="0" r="182.39999999999998" fill="none" stroke="#ddd" stroke-width="1" stroke-dasharray="3,3"></circle><circle cx="0" cy="0" r="205.2" fill="none" stroke="#ddd" stroke-width="1" stroke-dasharray="3,3"></circle><circle cx="0" cy="0" r="227.99999999999997" fill="none" stroke="#ddd" stroke-width="1" stroke-dasharray="3,3"></circle><linearGradient id="gradient-0" gradientUnits="userSpaceOnUse" x1="23.78714568171743" y1="-157.8173998655305" x2="59.35529551128195" y2="-123.25254112905093"><stop offset="0%" stop-color="rgb(85, 170, 0)"></stop><stop offset="100%" stop-color="rgb(170, 85, 0)"></stop></linearGradient><line x1="23.78714568171743" y1="-157.8173998655305" x2="59.35529551128195" y2="-123.25254112905093" stroke="url(#gradient-0)" stroke-width="2" stroke-linecap="round"></line><linearGradient id="gradient-1" gradientUnits="userSpaceOnUse" x1="59.35529551128195" y1="-123.25254112905093" x2="108.55556894823873" y2="-116.99507874404024"><stop offset="0%" stop-color="rgb(170, 85, 0)"></stop><stop offset="100%" stop-color="rgb(85, 170, 0)"></stop></linearGradient><line x1="59.35529551128195" y1="-123.25254112905093" x2="108.55556894823873" y2="-116.99507874404024" stroke="url(#gradient-1)" stroke-width="2" stroke-linecap="round"></line><linearGradient id="gradient-2" gradientUnits="userSpaceOnUse" x1="108.55556894823873" y1="-116.99507874404024" x2="138.2176544439964" y2="-79.79999999999995"><stop offset="0%" stop-color="rgb(85, 170, 0)"></stop><stop offset="100%" stop-color="rgb(85, 170, 0)"></stop></linearGradient><line x1="108.55556894823873" y1="-116.99507874404024" x2="138.2176544439964" y2="-79.79999999999995" stroke="url(#gradient-2)" stroke-width="2" stroke-linecap="round"></line><linearGradient id="gradient-3" gradientUnits="userSpaceOnUse" x1="138.2176544439964" y1="-79.79999999999995" x2="111.14178198872789" y2="-25.367386471019838"><stop offset="0%" stop-color="rgb(85, 170, 0)"></stop><stop offset="100%" stop-color="rgb(255, 0, 0)"></stop></linearGradient><line x1="138.2176544439964" y1="-79.79999999999995" x2="111.14178198872789" y2="-25.367386471019838" stroke="url(#gradient-3)" stroke-width="2" stroke-linecap="round"></line><linearGradient id="gradient-4" gradientUnits="userSpaceOnUse" x1="111.14178198872789" y1="-25.367386471019838" x2="136.41747945438541" y2="10.223076802622815"><stop offset="0%" stop-color="rgb(255, 0, 0)"></stop><stop offset="100%" stop-color="rgb(170, 85, 0)"></stop></linearGradient><line x1="111.14178198872789" y1="-25.367386471019838" x2="136.41747945438541" y2="10.223076802622815" stroke="url(#gradient-4)" stroke-width="2" stroke-linecap="round"></line><linearGradient id="gradient-5" gradientUnits="userSpaceOnUse" x1="136.41747945438541" y1="10.223076802622815" x2="148.56745028361496" y2="58.30842748887662"><stop offset="0%" stop-color="rgb(170, 85, 0)"></stop><stop offset="100%" stop-color="rgb(85, 170, 0)"></stop></linearGradient><line x1="136.41747945438541" y1="10.223076802622815" x2="148.56745028361496" y2="58.30842748887662" stroke="url(#gradient-5)" stroke-width="2" stroke-linecap="round"></line><linearGradient id="gradient-6" gradientUnits="userSpaceOnUse" x1="148.56745028361496" y1="58.30842748887662" x2="142.60606240216862" y2="113.72453985903297"><stop offset="0%" stop-color="rgb(85, 170, 0)"></stop><stop offset="100%" stop-color="rgb(0, 255, 0)"></stop></linearGradient><line x1="148.56745028361496" y1="58.30842748887662" x2="142.60606240216862" y2="113.72453985903297" stroke="url(#gradient-6)" stroke-width="2" stroke-linecap="round"></line><linearGradient id="gradient-7" gradientUnits="userSpaceOnUse" x1="142.60606240216862" y1="113.72453985903297" x2="89.90588126695403" y2="131.86770838083277"><stop offset="0%" stop-color="rgb(0, 255, 0)"></stop><stop offset="100%" stop-color="rgb(85, 170, 0)"></stop></linearGradient><line x1="142.60606240216862" y1="113.72453985903297" x2="89.90588126695403" y2="131.86770838083277" stroke="url(#gradient-7)" stroke-width="2" stroke-linecap="round"></line><linearGradient id="gradient-8" gradientUnits="userSpaceOnUse" x1="89.90588126695403" y1="131.86770838083277" x2="40.322507859411736" y2="130.72235983154403"><stop offset="0%" stop-color="rgb(85, 170, 0)"></stop><stop offset="100%" stop-color="rgb(170, 85, 0)"></stop></linearGradient><line x1="89.90588126695403" y1="131.86770838083277" x2="40.322507859411736" y2="130.72235983154403" stroke="url(#gradient-8)" stroke-width="2" stroke-linecap="round"></line><linearGradient id="gradient-9" gradientUnits="userSpaceOnUse" x1="40.322507859411736" y1="130.72235983154403" x2="9.772681457195876e-15" y2="159.59999999999997"><stop offset="0%" stop-color="rgb(170, 85, 0)"></stop><stop offset="100%" stop-color="rgb(85, 170, 0)"></stop></linearGradient><line x1="40.322507859411736" y1="130.72235983154403" x2="9.772681457195876e-15" y2="159.59999999999997" stroke="url(#gradient-9)" stroke-width="2" stroke-linecap="round"></line><linearGradient id="gradient-10" gradientUnits="userSpaceOnUse" x1="9.772681457195876e-15" y1="159.59999999999997" x2="-33.60208988284305" y2="108.93529985962003"><stop offset="0%" stop-color="rgb(85, 170, 0)"></stop><stop offset="100%" stop-color="rgb(255, 0, 0)"></stop></linearGradient><line x1="9.772681457195876e-15" y1="159.59999999999997" x2="-33.60208988284305" y2="108.93529985962003" stroke="url(#gradient-10)" stroke-width="2" stroke-linecap="round"></line><linearGradient id="gradient-11" gradientUnits="userSpaceOnUse" x1="-33.60208988284305" y1="108.93529985962003" x2="-77.06218394310349" y2="113.02946432642807"><stop offset="0%" stop-color="rgb(255, 0, 0)"></stop><stop offset="100%" stop-color="rgb(170, 85, 0)"></stop></linearGradient><line x1="-33.60208988284305" y1="108.93529985962003" x2="-77.06218394310349" y2="113.02946432642807" stroke="url(#gradient-11)" stroke-width="2" stroke-linecap="round"></line><linearGradient id="gradient-12" gradientUnits="userSpaceOnUse" x1="-77.06218394310349" y1="113.02946432642807" x2="-124.78030460189753" y2="99.50897237665386"><stop offset="0%" stop-color="rgb(170, 85, 0)"></stop><stop offset="100%" stop-color="rgb(85, 170, 0)"></stop></linearGradient><line x1="-77.06218394310349" y1="113.02946432642807" x2="-124.78030460189753" y2="99.50897237665386" stroke="url(#gradient-12)" stroke-width="2" stroke-linecap="round"></line><linearGradient id="gradient-13" gradientUnits="userSpaceOnUse" x1="-124.78030460189753" y1="99.50897237665386" x2="-127.34352881452709" y2="49.97865213332292"><stop offset="0%" stop-color="rgb(85, 170, 0)"></stop><stop offset="100%" stop-color="rgb(170, 85, 0)"></stop></linearGradient><line x1="-124.78030460189753" y1="99.50897237665386" x2="-127.34352881452709" y2="49.97865213332292" stroke="url(#gradient-13)" stroke-width="2" stroke-linecap="round"></line><linearGradient id="gradient-14" gradientUnits="userSpaceOnUse" x1="-127.34352881452709" y1="49.97865213332292" x2="-159.1537260301163" y2="11.926922936393233"><stop offset="0%" stop-color="rgb(170, 85, 0)"></stop><stop offset="100%" stop-color="rgb(85, 170, 0)"></stop></linearGradient><line x1="-127.34352881452709" y1="49.97865213332292" x2="-159.1537260301163" y2="11.926922936393233" stroke="url(#gradient-14)" stroke-width="2" stroke-linecap="round"></line><linearGradient id="gradient-15" gradientUnits="userSpaceOnUse" x1="-159.1537260301163" y1="11.926922936393233" x2="-177.8268511819646" y2="-40.58781835363172"><stop offset="0%" stop-color="rgb(85, 170, 0)"></stop><stop offset="100%" stop-color="rgb(0, 255, 0)"></stop></linearGradient><line x1="-159.1537260301163" y1="11.926922936393233" x2="-177.8268511819646" y2="-40.58781835363172" stroke="url(#gradient-15)" stroke-width="2" stroke-linecap="round"></line><linearGradient id="gradient-16" gradientUnits="userSpaceOnUse" x1="-177.8268511819646" y1="-40.58781835363172" x2="-118.47227523771119" y2="-68.4"><stop offset="0%" stop-color="rgb(0, 255, 0)"></stop><stop offset="100%" stop-color="rgb(170, 85, 0)"></stop></linearGradient><line x1="-177.8268511819646" y1="-40.58781835363172" x2="-118.47227523771119" y2="-68.4" stroke="url(#gradient-16)" stroke-width="2" stroke-linecap="round"></line><linearGradient id="gradient-17" gradientUnits="userSpaceOnUse" x1="-118.47227523771119" y1="-68.4" x2="-77.53969210588484" y2="-83.56791338860016"><stop offset="0%" stop-color="rgb(170, 85, 0)"></stop><stop offset="100%" stop-color="rgb(255, 0, 0)"></stop></linearGradient><line x1="-118.47227523771119" y1="-68.4" x2="-77.53969210588484" y2="-83.56791338860016" stroke="url(#gradient-17)" stroke-width="2" stroke-linecap="round"></line><linearGradient id="gradient-18" gradientUnits="userSpaceOnUse" x1="-77.53969210588484" y1="-83.56791338860016" x2="-69.24784476316229" y2="-143.79463131722605"><stop offset="0%" stop-color="rgb(255, 0, 0)"></stop><stop offset="100%" stop-color="rgb(85, 170, 0)"></stop></linearGradient><line x1="-77.53969210588484" y1="-83.56791338860016" x2="-69.24784476316229" y2="-143.79463131722605" stroke="url(#gradient-18)" stroke-width="2" stroke-linecap="round"></line><linearGradient id="gradient-19" gradientUnits="userSpaceOnUse" x1="-69.24784476316229" y1="-143.79463131722605" x2="-27.185309350534357" y2="-180.3627427034634"><stop offset="0%" stop-color="rgb(85, 170, 0)"></stop><stop offset="100%" stop-color="rgb(0, 255, 0)"></stop></linearGradient><line x1="-69.24784476316229" y1="-143.79463131722605" x2="-27.185309350534357" y2="-180.3627427034634" stroke="url(#gradient-19)" stroke-width="2" stroke-linecap="round"></line><linearGradient id="gradient-20" gradientUnits="userSpaceOnUse" x1="-27.185309350534357" y1="-180.3627427034634" x2="23.78714568171743" y2="-157.8173998655305"><stop offset="0%" stop-color="rgb(0, 255, 0)"></stop><stop offset="100%" stop-color="rgb(85, 170, 0)"></stop></linearGradient><line x1="-27.185309350534357" y1="-180.3627427034634" x2="23.78714568171743" y2="-157.8173998655305" stroke="url(#gradient-20)" stroke-width="2" stroke-linecap="round"></line><circle cx="23.78714568171743" cy="-157.8173998655305" r="4" fill="rgb(85, 170, 0)"></circle><circle cx="59.35529551128195" cy="-123.25254112905093" r="4" fill="rgb(170, 85, 0)"></circle><circle cx="108.55556894823873" cy="-116.99507874404024" r="4" fill="rgb(85, 170, 0)"></circle><circle cx="138.2176544439964" cy="-79.79999999999995" r="4" fill="rgb(85, 170, 0)"></circle><circle cx="111.14178198872789" cy="-25.367386471019838" r="4" fill="rgb(255, 0, 0)"></circle><circle cx="136.41747945438541" cy="10.223076802622815" r="4" fill="rgb(170, 85, 0)"></circle><circle cx="148.56745028361496" cy="58.30842748887662" r="4" fill="rgb(85, 170, 0)"></circle><circle cx="142.60606240216862" cy="113.72453985903297" r="4" fill="rgb(0, 255, 0)"></circle><circle cx="89.90588126695403" cy="131.86770838083277" r="4" fill="rgb(85, 170, 0)"></circle><circle cx="40.322507859411736" cy="130.72235983154403" r="4" fill="rgb(170, 85, 0)"></circle><circle cx="9.772681457195876e-15" cy="159.59999999999997" r="4" fill="rgb(85, 170, 0)"></circle><circle cx="-33.60208988284305" cy="108.93529985962003" r="4" fill="rgb(255, 0, 0)"></circle><circle cx="-77.06218394310349" cy="113.02946432642807" r="4" fill="rgb(170, 85, 0)"></circle><circle cx="-124.78030460189753" cy="99.50897237665386" r="4" fill="rgb(85, 170, 0)"></circle><circle cx="-127.34352881452709" cy="49.97865213332292" r="4" fill="rgb(170, 85, 0)"></circle><circle cx="-159.1537260301163" cy="11.926922936393233" r="4" fill="rgb(85, 170, 0)"></circle><circle cx="-177.8268511819646" cy="-40.58781835363172" r="4" fill="rgb(0, 255, 0)"></circle><circle cx="-118.47227523771119" cy="-68.4" r="4" fill="rgb(170, 85, 0)"></circle><circle cx="-77.53969210588484" cy="-83.56791338860016" r="4" fill="rgb(255, 0, 0)"></circle><circle cx="-69.24784476316229" cy="-143.79463131722605" r="4" fill="rgb(85, 170, 0)"></circle><circle cx="-27.185309350534357" cy="-180.3627427034634" r="4" fill="rgb(0, 255, 0)"></circle><g class="points-group"><circle cx="8.896148933381927" cy="-67.81901307270024" r="2" fill="#000" opacity="1"></circle><circle cx="4.867981269523081" cy="-91.0699882417889" r="2" fill="#000" opacity="1"></circle><circle cx="16.530691025988776" cy="-89.68933188625776" r="2" fill="#000" opacity="1"></circle><circle cx="24.34497099574898" cy="-111.37020421646059" r="2" fill="#000" opacity="1"></circle><circle cx="12.688223798749933" cy="-113.29169862277126" r="2" fill="#000" opacity="1"></circle><circle cx="26.210445294104424" cy="-134.26560452135445" r="2" fill="#000" opacity="1"></circle><circle cx="4.085008319402019" cy="-136.73899482967693" r="2" fill="#000" opacity="1"></circle><circle cx="4.529612845930829" cy="-159.53570950563378" r="2" fill="#000" opacity="1"></circle><circle cx="13.442697338685575" cy="-159.03287046475796" r="2" fill="#000" opacity="1"></circle><circle cx="36.703978036090916" cy="-155.32217483774215" r="2" fill="#000" opacity="1"></circle><circle cx="42.595951187953695" cy="-177.3565475035908" r="2" fill="#000" opacity="1"></circle><circle cx="46.073175796716626" cy="-176.48519051751862" r="2" fill="#000" opacity="1"></circle><circle cx="42.39567076516299" cy="-177.4045295373596" r="2" fill="#000" opacity="1"></circle><circle cx="8.26730455650297" cy="-205.0333916106594" r="2" fill="#000" opacity="1"></circle><circle cx="38.67521230270073" cy="-201.52237581306207" r="2" fill="#000" opacity="1"></circle><circle cx="25.234135356908393" cy="-63.57513989594695" r="2" fill="#000" opacity="1"></circle><circle cx="41.50014625602086" cy="-81.21070040782111" r="2" fill="#000" opacity="1"></circle><circle cx="49.125786077372545" cy="-76.83812297473324" r="2" fill="#000" opacity="1"></circle><circle cx="54.49057378436686" cy="-100.13379733461858" r="2" fill="#000" opacity="1"></circle><circle cx="60.960964152293165" cy="-96.33151534997684" r="2" fill="#000" opacity="1"></circle><circle cx="44.519431241912216" cy="-129.35323823506178" r="2" fill="#000" opacity="1"></circle><circle cx="46.09190643604933" cy="-128.8013049665665" r="2" fill="#000" opacity="1"></circle><circle cx="66.82768465947495" cy="-119.3662454928267" r="2" fill="#000" opacity="1"></circle><circle cx="75.41652347740875" cy="-140.65741355002035" r="2" fill="#000" opacity="1"></circle><circle cx="87.29705324346793" cy="-133.60907340075042" r="2" fill="#000" opacity="1"></circle><circle cx="58.406724259847536" cy="-148.5288341071663" r="2" fill="#000" opacity="1"></circle><circle cx="63.360479525693364" cy="-171.04154359182502" r="2" fill="#000" opacity="1"></circle><circle cx="76.94220697894762" cy="-165.37731641675884" r="2" fill="#000" opacity="1"></circle><circle cx="98.33206861321035" cy="-153.62475152867418" r="2" fill="#000" opacity="1"></circle><circle cx="71.5982896760066" cy="-192.30373089326855" r="2" fill="#000" opacity="1"></circle><circle cx="58.87456054592038" cy="-69.65074386196284" r="2" fill="#000" opacity="1"></circle><circle cx="81.90050717760536" cy="-79.2988456665733" r="2" fill="#000" opacity="1"></circle><circle cx="74.29602669994875" cy="-86.46444596827357" r="2" fill="#000" opacity="1"></circle><circle cx="84.3829129359391" cy="-107.67434236829922" r="2" fill="#000" opacity="1"></circle><circle cx="88.08770339629523" cy="-104.66516378607696" r="2" fill="#000" opacity="1"></circle><circle cx="114.86118579781275" cy="-110.8109561240238" r="2" fill="#000" opacity="1"></circle><circle cx="117.78145119597407" cy="-107.70185585295347" r="2" fill="#000" opacity="1"></circle><circle cx="97.42288132285307" cy="-126.41575137123252" r="2" fill="#000" opacity="1"></circle><circle cx="131.57083603347996" cy="-126.32844139563791" r="2" fill="#000" opacity="1"></circle><circle cx="109.11050313826108" cy="-146.16654235807698" r="2" fill="#000" opacity="1"></circle><circle cx="121.40359073610668" cy="-136.12835177280266" r="2" fill="#000" opacity="1"></circle><circle cx="127.43287249507114" cy="-130.50142914027776" r="2" fill="#000" opacity="1"></circle><circle cx="133.94434883990738" cy="-155.45401703993758" r="2" fill="#000" opacity="1"></circle><circle cx="121.79426079892556" cy="-165.145990070735" r="2" fill="#000" opacity="1"></circle><circle cx="123.92998529795504" cy="-163.54937708242315" r="2" fill="#000" opacity="1"></circle><circle cx="76.50553950084434" cy="-49.642143645140315" r="2" fill="#000" opacity="1"></circle><circle cx="102.1976286581796" cy="-50.51380699021629" r="2" fill="#000" opacity="1"></circle><circle cx="104.7855487425837" cy="-44.899763637636354" r="2" fill="#000" opacity="1"></circle><circle cx="125.19616056462537" cy="-55.13765845478514" r="2" fill="#000" opacity="1"></circle><circle cx="117.47552582799088" cy="-70.09808008381573" r="2" fill="#000" opacity="1"></circle><circle cx="138.9594449325" cy="-78.50116345667429" r="2" fill="#000" opacity="1"></circle><circle cx="139.27180183034002" cy="-77.94565552313024" r="2" fill="#000" opacity="1"></circle><circle cx="146.19857735519008" cy="-64.01668516346727" r="2" fill="#000" opacity="1"></circle><circle cx="136.89291220619455" cy="-82.05175554311496" r="2" fill="#000" opacity="1"></circle><circle cx="138.04186242428838" cy="-80.10370914279704" r="2" fill="#000" opacity="1"></circle><circle cx="160.98939516044126" cy="-85.74482285173421" r="2" fill="#000" opacity="1"></circle><circle cx="158.17194276683844" cy="-90.837197894717" r="2" fill="#000" opacity="1"></circle><circle cx="153.18500843960248" cy="-99.01572193020111" r="2" fill="#000" opacity="1"></circle><circle cx="184.83928297475924" cy="-89.11497892821873" r="2" fill="#000" opacity="1"></circle><circle cx="188.20537410333216" cy="-81.76660173093157" r="2" fill="#000" opacity="1"></circle><circle cx="65.69891036285671" cy="-19.03189893660953" r="2" fill="#000" opacity="1"></circle><circle cx="87.6849349027266" cy="-25.075729124087253" r="2" fill="#000" opacity="1"></circle><circle cx="89.11027767072451" cy="-19.41129602696263" r="2" fill="#000" opacity="1"></circle><circle cx="89.76467862075916" cy="-16.11652791738413" r="2" fill="#000" opacity="1"></circle><circle cx="109.60756969450995" cy="-31.339761735902545" r="2" fill="#000" opacity="1"></circle><circle cx="112.74845763080788" cy="-16.845928347049234" r="2" fill="#000" opacity="1"></circle><circle cx="108.4443337864563" cy="-35.15432362614378" r="2" fill="#000" opacity="1"></circle><circle cx="112.9314703593351" cy="-15.571865735312993" r="2" fill="#000" opacity="1"></circle><circle cx="112.9926305778486" cy="-15.121687574402218" r="2" fill="#000" opacity="1"></circle><circle cx="111.55084282842823" cy="-23.50339261186135" r="2" fill="#000" opacity="1"></circle><circle cx="135.6870906517272" cy="-17.41417326403868" r="2" fill="#000" opacity="1"></circle><circle cx="132.21156577541953" cy="-35.13320189239678" r="2" fill="#000" opacity="1"></circle><circle cx="134.90499408766297" cy="-22.691024000860295" r="2" fill="#000" opacity="1"></circle><circle cx="152.25897709076025" cy="-47.84729767996655" r="2" fill="#000" opacity="1"></circle><circle cx="158.44178212272936" cy="-19.192750656785712" r="2" fill="#000" opacity="1"></circle><circle cx="68.33818117663289" cy="-2.9074032175977353" r="2" fill="#000" opacity="1"></circle><circle cx="90.91071489288888" cy="7.258231028554397" r="2" fill="#000" opacity="1"></circle><circle cx="89.88545217331736" cy="15.428722811635327" r="2" fill="#000" opacity="1"></circle><circle cx="113.86183819524422" cy="-5.61086471054343" r="2" fill="#000" opacity="1"></circle><circle cx="111.97440720938368" cy="21.394675274636" r="2" fill="#000" opacity="1"></circle><circle cx="135.9906048402069" cy="14.85918554950728" r="2" fill="#000" opacity="1"></circle><circle cx="136.7360429633127" cy="-4.182649248394233" r="2" fill="#000" opacity="1"></circle><circle cx="136.77929782328735" cy="-2.379850198742844" r="2" fill="#000" opacity="1"></circle><circle cx="135.52066227882835" cy="18.665210834805727" r="2" fill="#000" opacity="1"></circle><circle cx="136.79982067647128" cy="0.2215014340649336" r="2" fill="#000" opacity="1"></circle><circle cx="158.865550505657" cy="15.293687015711129" r="2" fill="#000" opacity="1"></circle><circle cx="159.39638572418642" cy="8.059293893783124" r="2" fill="#000" opacity="1"></circle><circle cx="159.56807944986303" cy="-3.191867898611524" r="2" fill="#000" opacity="1"></circle><circle cx="179.13622478788807" cy="34.35073461722804" r="2" fill="#000" opacity="1"></circle><circle cx="182.38779830845615" cy="2.1097460022268795" r="2" fill="#000" opacity="1"></circle><circle cx="86.5780163313452" cy="28.66508482682934" r="2" fill="#000" opacity="1"></circle><circle cx="109.45876231584533" cy="31.855601584074268" r="2" fill="#000" opacity="1"></circle><circle cx="107.0724173874092" cy="39.13435108464719" r="2" fill="#000" opacity="1"></circle><circle cx="128.19621174449608" cy="47.749044957572934" r="2" fill="#000" opacity="1"></circle><circle cx="120.93297510522149" cy="63.94885090601609" r="2" fill="#000" opacity="1"></circle><circle cx="144.6487076515591" cy="67.44561790608621" r="2" fill="#000" opacity="1"></circle><circle cx="150.01627375530072" cy="54.47272352815368" r="2" fill="#000" opacity="1"></circle><circle cx="152.55507880745967" cy="46.89464713642446" r="2" fill="#000" opacity="1"></circle><circle cx="153.76476885891668" cy="42.76161664114114" r="2" fill="#000" opacity="1"></circle><circle cx="154.53179863502916" cy="39.90091741580369" r="2" fill="#000" opacity="1"></circle><circle cx="174.14099432118473" cy="54.26485139414918" r="2" fill="#000" opacity="1"></circle><circle cx="168.2975874307749" cy="70.32554347447777" r="2" fill="#000" opacity="1"></circle><circle cx="165.804499519685" cy="76.0172871064652" r="2" fill="#000" opacity="1"></circle><circle cx="198.10962001199053" cy="53.47540050064807" r="2" fill="#000" opacity="1"></circle><circle cx="181.23558329746993" cy="96.23254827149614" r="2" fill="#000" opacity="1"></circle><circle cx="79.86547880861181" cy="81.34805034339283" r="2" fill="#000" opacity="1"></circle><circle cx="110.87492719573358" cy="80.1310833530957" r="2" fill="#000" opacity="1"></circle><circle cx="101.81367869866096" cy="91.36856587385964" r="2" fill="#000" opacity="1"></circle><circle cx="127.96961948669605" cy="95.37261917568486" r="2" fill="#000" opacity="1"></circle><circle cx="124.80206373361167" cy="99.48168116709488" r="2" fill="#000" opacity="1"></circle><circle cx="150.7927037020077" cy="102.6222223021822" r="2" fill="#000" opacity="1"></circle><circle cx="154.38768041937405" cy="97.1298313327333" r="2" fill="#000" opacity="1"></circle><circle cx="140.5711704456499" cy="116.23040066841392" r="2" fill="#000" opacity="1"></circle><circle cx="154.35471260206526" cy="97.18221389500152" r="2" fill="#000" opacity="1"></circle><circle cx="130.84668474484587" cy="127.07834233764189" r="2" fill="#000" opacity="1"></circle><circle cx="171.81500525776897" cy="112.19021333553482" r="2" fill="#000" opacity="1"></circle><circle cx="163.90785050250028" cy="123.45548405660243" r="2" fill="#000" opacity="1"></circle><circle cx="164.20733471083048" cy="123.05686176384184" r="2" fill="#000" opacity="1"></circle><circle cx="154.28525353326373" cy="135.2889520329599" r="2" fill="#000" opacity="1"></circle><circle cx="155.63640996518637" cy="133.7323741401028" r="2" fill="#000" opacity="1"></circle><circle cx="47.26418340519128" cy="77.99703178352648" r="2" fill="#000" opacity="1"></circle><circle cx="70.3488737176067" cy="89.70527279187229" r="2" fill="#000" opacity="1"></circle><circle cx="68.31828823042699" cy="91.26122666973252" r="2" fill="#000" opacity="1"></circle><circle cx="81.58346538050361" cy="109.81064691781104" r="2" fill="#000" opacity="1"></circle><circle cx="73.68131743270686" cy="115.26189075917799" r="2" fill="#000" opacity="1"></circle><circle cx="95.40242610759688" cy="127.94739971091442" r="2" fill="#000" opacity="1"></circle><circle cx="81.17674134570758" cy="137.41359708737733" r="2" fill="#000" opacity="1"></circle><circle cx="88.75540389470942" cy="132.64478233042936" r="2" fill="#000" opacity="1"></circle><circle cx="72.23052083308878" cy="142.31975217860912" r="2" fill="#000" opacity="1"></circle><circle cx="89.98961847723574" cy="131.81057835515912" r="2" fill="#000" opacity="1"></circle><circle cx="84.52628583612938" cy="161.63250602137228" r="2" fill="#000" opacity="1"></circle><circle cx="88.95546513863906" cy="159.23782597727325" r="2" fill="#000" opacity="1"></circle><circle cx="84.42297708882465" cy="161.6864896627414" r="2" fill="#000" opacity="1"></circle><circle cx="125.27111753753302" cy="162.5244200447969" r="2" fill="#000" opacity="1"></circle><circle cx="107.33082305022116" cy="174.8917791760439" r="2" fill="#000" opacity="1"></circle><circle cx="27.91581164180175" cy="62.444114697699455" r="2" fill="#000" opacity="1"></circle><circle cx="27.103827541816543" cy="87.07940360718753" r="2" fill="#000" opacity="1"></circle><circle cx="18.0856263590815" cy="89.388758349133" r="2" fill="#000" opacity="1"></circle><circle cx="30.314634077650453" cy="109.89550928376532" r="2" fill="#000" opacity="1"></circle><circle cx="22.37130809630725" cy="111.78338236992158" r="2" fill="#000" opacity="1"></circle><circle cx="56.35820905348986" cy="124.65148323338607" r="2" fill="#000" opacity="1"></circle><circle cx="51.707409212474595" cy="126.65142649229692" r="2" fill="#000" opacity="1"></circle><circle cx="41.70033764351713" cy="130.28937731226083" r="2" fill="#000" opacity="1"></circle><circle cx="47.6465263001124" cy="128.23435004526942" r="2" fill="#000" opacity="1"></circle><circle cx="35.92999604653281" cy="131.99725521425106" r="2" fill="#000" opacity="1"></circle><circle cx="34.41654262044371" cy="155.84499220076071" r="2" fill="#000" opacity="1"></circle><circle cx="62.40608886485926" cy="146.8932948523903" r="2" fill="#000" opacity="1"></circle><circle cx="30.379904881301528" cy="156.68191146205442" r="2" fill="#000" opacity="1"></circle><circle cx="41.22089391365212" cy="177.68116924693913" r="2" fill="#000" opacity="1"></circle><circle cx="63.966553145718045" cy="170.8158074613003" r="2" fill="#000" opacity="1"></circle><circle cx="9.334981099758252" cy="90.72099055823385" r="2" fill="#000" opacity="1"></circle><circle cx="-9.271277175049905" cy="113.62237200280319" r="2" fill="#000" opacity="1"></circle><circle cx="-8.018178633397152" cy="113.71767150009241" r="2" fill="#000" opacity="1"></circle><circle cx="16.07198685352116" cy="135.85260850856062" r="2" fill="#000" opacity="1"></circle><circle cx="5.20243178680624" cy="136.70104134023128" r="2" fill="#000" opacity="1"></circle><circle cx="20.307978155462596" cy="158.3027037774063" r="2" fill="#000" opacity="1"></circle><circle cx="-16.110888621273176" cy="158.78475766846427" r="2" fill="#000" opacity="1"></circle><circle cx="14.579276047292803" cy="158.93270497269222" r="2" fill="#000" opacity="1"></circle><circle cx="-11.310758976551377" cy="159.19870204048257" r="2" fill="#000" opacity="1"></circle><circle cx="-9.969809394182057" cy="159.28830120458835" r="2" fill="#000" opacity="1"></circle><circle cx="12.751453257373017" cy="181.95373159082234" r="2" fill="#000" opacity="1"></circle><circle cx="21.259910552866515" cy="181.1567724466411" r="2" fill="#000" opacity="1"></circle><circle cx="20.132598350244383" cy="181.28551647516613" r="2" fill="#000" opacity="1"></circle><circle cx="-24.674842389543485" cy="203.71105064048731" r="2" fill="#000" opacity="1"></circle><circle cx="21.593715494410116" cy="204.06065630382176" r="2" fill="#000" opacity="1"></circle><circle cx="-16.889173173827874" cy="42.35700449163576" r="2" fill="#000" opacity="1"></circle><circle cx="-24.353360147863825" cy="63.917711547805254" r="2" fill="#000" opacity="1"></circle><circle cx="-17.75349077649808" cy="66.05583672355378" r="2" fill="#000" opacity="1"></circle><circle cx="-27.442720207791655" cy="86.9731976392547" r="2" fill="#000" opacity="1"></circle><circle cx="-31.771923399769044" cy="85.48675267829049" r="2" fill="#000" opacity="1"></circle><circle cx="-47.30573503329989" cy="103.72158614752871" r="2" fill="#000" opacity="1"></circle><circle cx="-34.116531802355645" cy="108.7752833036019" r="2" fill="#000" opacity="1"></circle><circle cx="-34.80375837980743" cy="108.55735075359928" r="2" fill="#000" opacity="1"></circle><circle cx="-30.49097717540639" cy="109.84671279054663" r="2" fill="#000" opacity="1"></circle><circle cx="-39.78446502475619" cy="106.83256218351195" r="2" fill="#000" opacity="1"></circle><circle cx="-23.987554101081823" cy="134.68050062368965" r="2" fill="#000" opacity="1"></circle><circle cx="-30.955965375736337" cy="133.25152234648658" r="2" fill="#000" opacity="1"></circle><circle cx="-39.0819991254198" cy="131.0985787274625" r="2" fill="#000" opacity="1"></circle><circle cx="-57.522847157668274" cy="148.87337591011874" r="2" fill="#000" opacity="1"></circle><circle cx="-64.61018394748689" cy="145.93726093863725" r="2" fill="#000" opacity="1"></circle><circle cx="-32.01733520292883" cy="60.443777566456696" r="2" fill="#000" opacity="1"></circle><circle cx="-59.069755015242514" cy="69.48527932187673" r="2" fill="#000" opacity="1"></circle><circle cx="-48.25791361226748" cy="77.38613424762168" r="2" fill="#000" opacity="1"></circle><circle cx="-75.5513084102836" cy="85.36978269560142" r="2" fill="#000" opacity="1"></circle><circle cx="-72.7575382328197" cy="87.76297983945041" r="2" fill="#000" opacity="1"></circle><circle cx="-78.99826379987827" cy="111.68488848812464" r="2" fill="#000" opacity="1"></circle><circle cx="-69.94966084080352" cy="117.56396109461673" r="2" fill="#000" opacity="1"></circle><circle cx="-63.411855998725365" cy="121.21541370138088" r="2" fill="#000" opacity="1"></circle><circle cx="-82.15921977388636" cy="109.380540344918" r="2" fill="#000" opacity="1"></circle><circle cx="-82.95524563827223" cy="108.77806406207968" r="2" fill="#000" opacity="1"></circle><circle cx="-82.67405283569092" cy="136.51798778080996" r="2" fill="#000" opacity="1"></circle><circle cx="-99.02549453110957" cy="125.16433770395295" r="2" fill="#000" opacity="1"></circle><circle cx="-85.59295245819759" cy="134.70711373008004" r="2" fill="#000" opacity="1"></circle><circle cx="-83.63235504636279" cy="162.09685126306158" r="2" fill="#000" opacity="1"></circle><circle cx="-107.43251085763318" cy="147.40425913393588" r="2" fill="#000" opacity="1"></circle><circle cx="-77.26520715106581" cy="48.45129269589085" r="2" fill="#000" opacity="1"></circle><circle cx="-97.43687044698406" cy="59.17817399597288" r="2" fill="#000" opacity="1"></circle><circle cx="-93.03129486403476" cy="65.88761777391117" r="2" fill="#000" opacity="1"></circle><circle cx="-108.9446689830111" cy="82.7363227378528" r="2" fill="#000" opacity="1"></circle><circle cx="-109.56124430641943" cy="81.91809168937635" r="2" fill="#000" opacity="1"></circle><circle cx="-120.86316722288798" cy="104.23173609247908" r="2" fill="#000" opacity="1"></circle><circle cx="-125.56369543475726" cy="98.51861950295235" r="2" fill="#000" opacity="1"></circle><circle cx="-126.87659949169759" cy="96.82194225186436" r="2" fill="#000" opacity="1"></circle><circle cx="-111.1974443105807" cy="114.48706642584257" r="2" fill="#000" opacity="1"></circle><circle cx="-118.96782841292715" cy="106.3899234077754" r="2" fill="#000" opacity="1"></circle><circle cx="-133.72009329444035" cy="124.0511856022592" r="2" fill="#000" opacity="1"></circle><circle cx="-143.38101710177185" cy="112.7459264668192" r="2" fill="#000" opacity="1"></circle><circle cx="-144.8022403692464" cy="110.91470228985416" r="2" fill="#000" opacity="1"></circle><circle cx="-171.24171057285736" cy="113.06332986464595" r="2" fill="#000" opacity="1"></circle><circle cx="-154.49936536542054" cy="135.04438567257168" r="2" fill="#000" opacity="1"></circle><circle cx="-64.82055635768708" cy="21.837020709792604" r="2" fill="#000" opacity="1"></circle><circle cx="-85.89330454148444" cy="30.655835251119885" r="2" fill="#000" opacity="1"></circle><circle cx="-87.06379353947506" cy="27.153928896490438" r="2" fill="#000" opacity="1"></circle><circle cx="-106.4406508469928" cy="40.82141407727774" r="2" fill="#000" opacity="1"></circle><circle cx="-106.21239251499654" cy="41.4116852620164" r="2" fill="#000" opacity="1"></circle><circle cx="-127.09945499342555" cy="50.596131674014266" r="2" fill="#000" opacity="1"></circle><circle cx="-130.7334212382521" cy="40.28663018101329" r="2" fill="#000" opacity="1"></circle><circle cx="-124.35232753645019" cy="57.01524915553212" r="2" fill="#000" opacity="1"></circle><circle cx="-132.07778241182837" cy="35.63284149732822" r="2" fill="#000" opacity="1"></circle><circle cx="-128.6459430453478" cy="46.523771751365175" r="2" fill="#000" opacity="1"></circle><circle cx="-153.3398151643008" cy="44.26128201236444" r="2" fill="#000" opacity="1"></circle><circle cx="-154.8962647270474" cy="38.46176248702654" r="2" fill="#000" opacity="1"></circle><circle cx="-149.56362280253032" cy="55.70352532993243" r="2" fill="#000" opacity="1"></circle><circle cx="-171.8180779530512" cy="61.2234276116522" r="2" fill="#000" opacity="1"></circle><circle cx="-174.7666001466865" cy="52.21489704258919" r="2" fill="#000" opacity="1"></circle><circle cx="-90.83164408533588" cy="8.18855498576299" r="2" fill="#000" opacity="1"></circle><circle cx="-111.60908662667018" cy="23.225240200274126" r="2" fill="#000" opacity="1"></circle><circle cx="-112.8610576570526" cy="16.074254711539375" r="2" fill="#000" opacity="1"></circle><circle cx="-135.98791055472998" cy="14.883822861038002" r="2" fill="#000" opacity="1"></circle><circle cx="-136.7431198012617" cy="3.9445135337300776" r="2" fill="#000" opacity="1"></circle><circle cx="-158.16903879799048" cy="21.32405134395841" r="2" fill="#000" opacity="1"></circle><circle cx="-157.45485628172437" cy="26.07926826622078" r="2" fill="#000" opacity="1"></circle><circle cx="-158.79558426819816" cy="16.003825071574802" r="2" fill="#000" opacity="1"></circle><circle cx="-157.1950249722496" cy="27.602248531121795" r="2" fill="#000" opacity="1"></circle><circle cx="-159.4928659026932" cy="-5.846856090713001" r="2" fill="#000" opacity="1"></circle><circle cx="-182.348520799763" cy="-4.3332392200744465" r="2" fill="#000" opacity="1"></circle><circle cx="-181.85235434477988" cy="14.123782045210698" r="2" fill="#000" opacity="1"></circle><circle cx="-182.38555809231227" cy="2.2952558366725966" r="2" fill="#000" opacity="1"></circle><circle cx="-202.29188717155333" cy="34.424299333051536" r="2" fill="#000" opacity="1"></circle><circle cx="-203.69746998160147" cy="24.786704563022486" r="2" fill="#000" opacity="1"></circle><circle cx="-90.7196266520893" cy="-9.348226575427285" r="2" fill="#000" opacity="1"></circle><circle cx="-112.52559895092658" cy="-18.27538182187253" r="2" fill="#000" opacity="1"></circle><circle cx="-108.02780756824566" cy="-36.41418393975182" r="2" fill="#000" opacity="1"></circle><circle cx="-134.88613844652613" cy="-22.80284313379752" r="2" fill="#000" opacity="1"></circle><circle cx="-155.79620688800796" cy="-34.63671345998363" r="2" fill="#000" opacity="1"></circle><circle cx="-180.06748760006593" cy="-29.076793313570374" r="2" fill="#000" opacity="1"></circle><circle cx="-174.56547474812976" cy="-52.883409742187254" r="2" fill="#000" opacity="1"></circle><circle cx="-181.13653205140503" cy="-21.431676471762838" r="2" fill="#000" opacity="1"></circle><circle cx="-176.88211779188092" cy="-44.525008764279406" r="2" fill="#000" opacity="1"></circle><circle cx="-181.2752077677171" cy="-20.225208250373846" r="2" fill="#000" opacity="1"></circle><circle cx="-199.66649868829055" cy="-47.33211701961853" r="2" fill="#000" opacity="1"></circle><circle cx="-197.35096066446124" cy="-56.210660241757246" r="2" fill="#000" opacity="1"></circle><circle cx="-199.10206742058858" cy="-49.652862443643606" r="2" fill="#000" opacity="1"></circle><circle cx="-198.2617132842556" cy="-52.90872371917152" r="2" fill="#000" opacity="1"></circle><circle cx="-203.00259781889315" cy="-29.94971249913272" r="2" fill="#000" opacity="1"></circle><circle cx="-62.99199730224191" cy="-26.65648656283018" r="2" fill="#000" opacity="1"></circle><circle cx="-73.90998093487075" cy="-53.42990471830397" r="2" fill="#000" opacity="1"></circle><circle cx="-82.98627480909721" cy="-37.824835667970795" r="2" fill="#000" opacity="1"></circle><circle cx="-91.73587889790957" cy="-67.67960197007712" r="2" fill="#000" opacity="1"></circle><circle cx="-93.26505641356172" cy="-65.55630596803901" r="2" fill="#000" opacity="1"></circle><circle cx="-115.94328713648622" cy="-72.60436741674914" r="2" fill="#000" opacity="1"></circle><circle cx="-124.843544502018" cy="-55.931470534687755" r="2" fill="#000" opacity="1"></circle><circle cx="-114.86133307190887" cy="-74.30420018373124" r="2" fill="#000" opacity="1"></circle><circle cx="-117.09613756744723" cy="-70.73001178273245" r="2" fill="#000" opacity="1"></circle><circle cx="-111.47044084832946" cy="-79.30057261507686" r="2" fill="#000" opacity="1"></circle><circle cx="-145.96978774470583" cy="-64.53666450759225" r="2" fill="#000" opacity="1"></circle><circle cx="-135.16044063429982" cy="-84.8752925623347" r="2" fill="#000" opacity="1"></circle><circle cx="-146.0241138109626" cy="-64.4136490638671" r="2" fill="#000" opacity="1"></circle><circle cx="-145.37283016320814" cy="-110.16578529806355" r="2" fill="#000" opacity="1"></circle><circle cx="-154.64794847066216" cy="-96.71490078480882" r="2" fill="#000" opacity="1"></circle><circle cx="-28.858919724017042" cy="-35.30612910477074" r="2" fill="#000" opacity="1"></circle><circle cx="-50.02392934097764" cy="-46.649399709844886" r="2" fill="#000" opacity="1"></circle><circle cx="-39.93907766004653" cy="-55.52864193967624" r="2" fill="#000" opacity="1"></circle><circle cx="-64.98536600393328" cy="-63.98704716842956" r="2" fill="#000" opacity="1"></circle><circle cx="-64.58979280788637" cy="-64.38632358687913" r="2" fill="#000" opacity="1"></circle><circle cx="-79.3392447077497" cy="-81.86137214342189" r="2" fill="#000" opacity="1"></circle><circle cx="-75.56248270981095" cy="-85.35989226053135" r="2" fill="#000" opacity="1"></circle><circle cx="-76.22546496405863" cy="-84.76838143443031" r="2" fill="#000" opacity="1"></circle><circle cx="-84.56144393569842" cy="-76.45496844227803" r="2" fill="#000" opacity="1"></circle><circle cx="-86.24872574706707" cy="-74.54634335101359" r="2" fill="#000" opacity="1"></circle><circle cx="-100.50536054622198" cy="-92.80577838407434" r="2" fill="#000" opacity="1"></circle><circle cx="-100.6935055812735" cy="-92.6016086996011" r="2" fill="#000" opacity="1"></circle><circle cx="-93.66575371742186" cy="-99.70439599409481" r="2" fill="#000" opacity="1"></circle><circle cx="-105.08821788412894" cy="-120.11921770448653" r="2" fill="#000" opacity="1"></circle><circle cx="-92.29332716270815" cy="-130.2079174291537" r="2" fill="#000" opacity="1"></circle><circle cx="-44.28825277608504" cy="-79.72446717314324" r="2" fill="#000" opacity="1"></circle><circle cx="-50.496260544601654" cy="-102.20629956617988" r="2" fill="#000" opacity="1"></circle><circle cx="-48.19726779247836" cy="-103.31032560852823" r="2" fill="#000" opacity="1"></circle><circle cx="-71.86611908488624" cy="-116.4023235493044" r="2" fill="#000" opacity="1"></circle><circle cx="-74.88556461057694" cy="-114.48315252889878" r="2" fill="#000" opacity="1"></circle><circle cx="-72.24229378135746" cy="-142.3137765264067" r="2" fill="#000" opacity="1"></circle><circle cx="-81.04040632895152" cy="-137.49404547848036" r="2" fill="#000" opacity="1"></circle><circle cx="-56.81588295132321" cy="-149.14461252241574" r="2" fill="#000" opacity="1"></circle><circle cx="-80.31417972389859" cy="-137.91951470070256" r="2" fill="#000" opacity="1"></circle><circle cx="-56.467780959437405" cy="-149.27675543605906" r="2" fill="#000" opacity="1"></circle><circle cx="-82.76428549278182" cy="-162.54178861717162" r="2" fill="#000" opacity="1"></circle><circle cx="-93.80616780387295" cy="-156.42941821138254" r="2" fill="#000" opacity="1"></circle><circle cx="-99.13519883995531" cy="-153.10771486428277" r="2" fill="#000" opacity="1"></circle><circle cx="-85.73461602397641" cy="-186.43126244066826" r="2" fill="#000" opacity="1"></circle><circle cx="-97.53845080922926" cy="-180.53611996975994" r="2" fill="#000" opacity="1"></circle><circle cx="-24.35396926288335" cy="-111.3682368592703" r="2" fill="#000" opacity="1"></circle><circle cx="-25.57860870673137" cy="-134.38740557294767" r="2" fill="#000" opacity="1"></circle><circle cx="-29.668873325233825" cy="-133.54399258525717" r="2" fill="#000" opacity="1"></circle><circle cx="-16.841539891147942" cy="-158.70892392709007" r="2" fill="#000" opacity="1"></circle><circle cx="-21.410234036407378" cy="-158.15739590201355" r="2" fill="#000" opacity="1"></circle><circle cx="-22.842293663810647" cy="-180.96405615529352" r="2" fill="#000" opacity="1"></circle><circle cx="-21.503904477227522" cy="-181.12797158979689" r="2" fill="#000" opacity="1"></circle><circle cx="-35.64775507964609" cy="-178.8826362668595" r="2" fill="#000" opacity="1"></circle><circle cx="-31.798160376124528" cy="-179.6068957381488" r="2" fill="#000" opacity="1"></circle><circle cx="-37.13159726982325" cy="-178.58052660968286" r="2" fill="#000" opacity="1"></circle><circle cx="-6.191423987742429" cy="-205.10657295416937" r="2" fill="#000" opacity="1"></circle><circle cx="-25.506995113257613" cy="-203.6085292916096" r="2" fill="#000" opacity="1"></circle><circle cx="-17.513921974683626" cy="-204.45122287984654" r="2" fill="#000" opacity="1"></circle><circle cx="-44.97952697883027" cy="-200.20959555615877" r="2" fill="#000" opacity="1"></circle><circle cx="-53.97367945388248" cy="-197.97444765981678" r="2" fill="#000" opacity="1"></circle></g></g></svg>